<svg width="10" height="20" viewBox="0 0 10 20" fill="none" xmlns="http://www.w3.org/2000/svg">
<g clip-path="url(#clip0_202_196)">
<path fill-rule="evenodd" clip-rule="evenodd" d="M8.278 9.90713C5.978 7.5998 3.73 5.34846 1.534 3.15313C1.41905 3.03229 1.35495 2.8719 1.35495 2.70513C1.35495 2.53836 1.41905 2.37796 1.534 2.25713C1.845 1.91113 2.337 1.94113 2.561 2.17713C4.837 4.45913 7.218 6.84413 9.704 9.33213C9.90133 9.49413 10 9.68546 10 9.90613C10 10.1268 9.90133 10.3241 9.704 10.4981L2.221 17.8041C2.07734 17.9359 1.88801 18.0066 1.69312 18.0012C1.49824 17.9958 1.31312 17.9147 1.177 17.7751C0.819 17.4161 0.957001 17.0621 1.119 16.8941C3.50908 14.5683 5.89575 12.239 8.279 9.90613" fill="#242424"/>
</g>
<defs>
<clipPath id="clip0_202_196">
<rect width="9.04813" height="20.003" fill="white" transform="matrix(-1 0 0 1 10 -0.00152588)"/>
</clipPath>
</defs>
</svg>
