<svg width="19" height="19" viewBox="0 0 19 19" fill="none" xmlns="http://www.w3.org/2000/svg">
<path d="M3.37297 15.2871C4.27004 14.6412 5.22199 14.1307 6.22881 13.7557C7.23493 13.38 8.32478 13.1922 9.49836 13.1922C10.6719 13.1922 11.7618 13.38 12.7679 13.7557C13.774 14.1314 14.726 14.6415 15.6237 15.286C16.3203 14.5648 16.8807 13.7135 17.3049 12.732C17.7292 11.7491 17.9413 10.6712 17.9413 9.49835C17.9413 7.15894 17.1192 5.16675 15.4749 3.52178C13.8307 1.8768 11.8385 1.05467 9.49836 1.05537C7.15824 1.05608 5.16605 1.87856 3.52178 3.52283C1.87751 5.1671 1.05537 7.15894 1.05537 9.49835C1.05537 10.6712 1.2675 11.7491 1.69176 12.732C2.11602 13.7142 2.67643 14.5655 3.37297 15.286M9.49941 10.026C8.61008 10.026 7.85971 9.72069 7.2483 9.10998C6.63689 8.49927 6.33153 7.7496 6.33224 6.86098C6.33294 5.97235 6.6383 5.22198 7.2483 4.60987C7.85831 3.99775 8.60832 3.6924 9.49836 3.6938C10.3884 3.69521 11.1384 4.00057 11.7484 4.60987C12.3584 5.21917 12.6638 5.96919 12.6645 6.85992C12.6652 7.75066 12.3598 8.50068 11.7484 9.10998C11.137 9.71928 10.3873 10.0246 9.49941 10.026ZM9.49836 18.9967C8.17351 18.9967 6.93345 18.7501 5.77817 18.2569C4.62289 17.7637 3.61747 17.0896 2.76191 16.2348C1.90636 15.3799 1.23233 14.3745 0.739818 13.2185C0.24731 12.0626 0.000705083 10.8225 1.50124e-06 9.49835C-0.000702081 8.17421 0.245903 6.93415 0.739818 5.77817C1.23373 4.62218 1.90776 3.61676 2.76191 2.76191C3.61747 1.90706 4.62289 1.23303 5.77817 0.739816C6.93345 0.246605 8.17351 0 9.49836 0C10.8232 0 12.0633 0.246605 13.2185 0.739816C14.3738 1.23303 15.3792 1.90706 16.2348 2.76191C17.0904 3.61676 17.7644 4.62218 18.2569 5.77817C18.7494 6.93415 18.996 8.17421 18.9967 9.49835C18.9974 10.8225 18.7508 12.0626 18.2569 13.2185C17.763 14.3745 17.0889 15.3799 16.2348 16.2348C15.3792 17.0896 14.3738 17.7637 13.2185 18.2569C12.0633 18.7501 10.8232 18.9967 9.49836 18.9967ZM9.49836 17.9413C10.4714 17.9413 11.4286 17.7711 12.37 17.4305C13.3114 17.0907 14.1251 16.6249 14.8111 16.0332C14.1258 15.4823 13.3325 15.0472 12.4312 14.7277C11.5299 14.4083 10.5523 14.2482 9.49836 14.2475C8.44439 14.2468 7.46325 14.4034 6.55492 14.7172C5.6466 15.031 4.85648 15.4697 4.18455 16.0332C4.87055 16.6242 5.68459 17.09 6.62669 17.4305C7.56878 17.7711 8.52601 17.9413 9.49836 17.9413ZM9.49836 8.97067C10.0908 8.97067 10.5907 8.76698 10.998 8.35961C11.4054 7.95223 11.6091 7.45234 11.6091 6.85992C11.6091 6.26751 11.4054 5.76761 10.998 5.36024C10.5907 4.95286 10.0908 4.74918 9.49836 4.74918C8.90594 4.74918 8.40605 4.95286 7.99867 5.36024C7.5913 5.76761 7.38761 6.26751 7.38761 6.85992C7.38761 7.45234 7.5913 7.95223 7.99867 8.35961C8.40605 8.76698 8.90594 8.97067 9.49836 8.97067Z" fill="#242424"/>
</svg>
