<svg width="8" height="13" viewBox="0 0 8 13" fill="none" xmlns="http://www.w3.org/2000/svg">
<path fill-rule="evenodd" clip-rule="evenodd" d="M5.94499 6.57234C4.33499 8.18747 2.76139 9.76341 1.22419 11.3001C1.14373 11.3847 1.09886 11.497 1.09886 11.6137C1.09886 11.7305 1.14373 11.8428 1.22419 11.9273C1.44189 12.1695 1.78629 12.1485 1.94309 11.9833C3.53629 10.3859 5.20299 8.71644 6.94319 6.97484C7.08132 6.86144 7.15039 6.72751 7.15039 6.57304C7.15039 6.41857 7.08132 6.28044 6.94319 6.15864L1.70509 1.04444C1.60453 0.952174 1.472 0.902693 1.33558 0.906483C1.19916 0.910273 1.06957 0.967035 0.974291 1.06474C0.723691 1.31604 0.820291 1.56384 0.933691 1.68144C2.60675 3.30952 4.27742 4.94006 5.94569 6.57304" fill="#6588E6"/>
</svg>
