<svg width="20" height="20" viewBox="0 0 20 20" fill="none" xmlns="http://www.w3.org/2000/svg">
<path d="M10 1.25C6.54961 1.25 3.75 3.76992 3.75 6.875C3.75 11.875 9.375 18.75 10 18.75C10.625 18.75 16.25 11.875 16.25 6.875C16.25 3.76992 13.4504 1.25 10 1.25ZM10 10C9.50555 10 9.0222 9.85338 8.61107 9.57867C8.19995 9.30397 7.87952 8.91352 7.6903 8.45671C7.50108 7.99989 7.45157 7.49723 7.54804 7.01227C7.6445 6.52732 7.8826 6.08186 8.23223 5.73223C8.58186 5.3826 9.02732 5.1445 9.51227 5.04804C9.99723 4.95157 10.4999 5.00108 10.9567 5.1903C11.4135 5.37952 11.804 5.69995 12.0787 6.11107C12.3534 6.5222 12.5 7.00555 12.5 7.5C12.4993 8.16282 12.2357 8.79828 11.767 9.26697C11.2983 9.73565 10.6628 9.99928 10 10Z" fill="#6588E6"/>
<path d="M10 1.75C13.2251 1.75 15.75 4.0943 15.75 6.875C15.75 9.22431 14.4122 12.0899 12.9365 14.4199C12.2063 15.573 11.4586 16.5696 10.8594 17.2734C10.5589 17.6264 10.3022 17.8987 10.1084 18.0781C10.0682 18.1153 10.0316 18.1462 10 18.1729C9.96844 18.1462 9.93181 18.1153 9.8916 18.0781C9.69777 17.8987 9.44111 17.6264 9.14062 17.2734C8.54142 16.5696 7.79375 15.573 7.06348 14.4199C5.58781 12.0899 4.25 9.22431 4.25 6.875C4.25 4.0943 6.77491 1.75 10 1.75ZM11.1484 4.72852C10.6004 4.50149 9.99689 4.44194 9.41504 4.55762C8.8331 4.67337 8.29846 4.95935 7.87891 5.37891C7.45935 5.79846 7.17337 6.3331 7.05762 6.91504C6.94194 7.49689 7.00149 8.10035 7.22852 8.64844C7.45555 9.19633 7.83993 9.66459 8.33301 9.99414C8.76471 10.2826 9.26303 10.454 9.77832 10.4922L10 10.5H10.001C10.7961 10.499 11.5579 10.1823 12.1201 9.62012C12.6823 9.0579 12.999 8.29606 13 7.50098V7.5C13 6.90666 12.8238 6.32636 12.4941 5.83301C12.1646 5.33993 11.6963 4.95555 11.1484 4.72852Z" stroke="#242424" stroke-opacity="0.2"/>
</svg>
