<svg width="26" height="26" viewBox="0 0 26 26" fill="none" xmlns="http://www.w3.org/2000/svg">
<path d="M24.4375 1.57501C23.9599 1.08821 23.3543 0.746534 22.6907 0.58948C22.0271 0.432426 21.3326 0.466414 20.6875 0.687513L3 6.60001C2.28664 6.83351 1.66336 7.2827 1.21619 7.88556C0.769023 8.48842 0.520021 9.21522 0.503558 9.96564C0.487095 10.7161 0.703985 11.4531 1.12429 12.075C1.54459 12.6969 2.14757 13.173 2.85 13.4375L9.4 15.9375C9.54915 15.9945 9.68495 16.0817 9.79893 16.1935C9.91291 16.3054 10.0026 16.4395 10.0625 16.5875L12.5625 23.15C12.817 23.8425 13.2788 24.4397 13.885 24.8602C14.4911 25.2808 15.2122 25.5042 15.95 25.5H16.0375C16.7888 25.4863 17.5169 25.2379 18.1199 24.7896C18.7229 24.3413 19.1705 23.7155 19.4 23L25.3125 5.28751C25.5275 4.64868 25.5595 3.96244 25.4049 3.30637C25.2503 2.6503 24.9152 2.05058 24.4375 1.57501ZM23 4.50001L17.025 22.225C16.9556 22.4493 16.8163 22.6456 16.6273 22.785C16.4384 22.9245 16.2098 22.9998 15.975 23C15.7416 23.0038 15.5125 22.9365 15.3182 22.807C15.124 22.6775 14.9738 22.492 14.8875 22.275L12.3875 15.7125C12.2069 15.2353 11.9277 14.8015 11.5679 14.4397C11.2082 14.0778 10.7762 13.7959 10.3 13.6125L3.7375 11.1125C3.51612 11.0314 3.32582 10.8828 3.19348 10.6876C3.06114 10.4925 2.99346 10.2607 3 10.025C3.00019 9.79019 3.07552 9.5616 3.21497 9.37267C3.35442 9.18374 3.55066 9.04439 3.775 8.97501L21.5 3.06251C21.7035 2.97957 21.9267 2.95735 22.1425 2.99854C22.3584 3.03973 22.5577 3.14257 22.7164 3.29462C22.875 3.44667 22.9862 3.64143 23.0366 3.85534C23.0869 4.06925 23.0742 4.29317 23 4.50001Z" fill="#6588E6"/>
</svg>
