<svg width="29" height="29" viewBox="0 0 29 29" fill="none" xmlns="http://www.w3.org/2000/svg">
<path fill-rule="evenodd" clip-rule="evenodd" d="M7.57481 0.132273C8.40325 -0.000277835 9.37046 -0.076909 10.2051 0.117776L10.23 0.123989L17.5162 2.0087C17.7428 2.06876 17.9834 2.04675 18.1955 1.94657L18.4047 1.84715C19.3201 1.40808 20.3556 0.911012 21.2876 0.654194C22.0602 0.440869 23.2179 0.138487 24.326 0.0370022C25.0529 -0.0313445 25.5914 0.36838 25.8979 0.679047C26.4364 1.22375 26.7326 1.87822 26.9169 2.48506C27.0702 2.98627 27.1655 3.52061 27.2442 3.97212C27.8054 6.97604 28.0256 10.0337 27.9007 13.0871C26.5732 12.1283 25.0067 11.5548 23.3739 11.4299C21.7412 11.3051 20.1056 11.6336 18.6478 12.3794C17.1899 13.1251 15.9664 14.2591 15.1121 15.6561C14.2579 17.0532 13.8062 18.6591 13.8068 20.2966C13.8068 21.6221 14.0843 22.8689 14.5462 24.0246L10.2031 22.9C10.0543 22.8585 9.89726 22.8563 9.74741 22.8938C8.98938 23.1009 8.20443 23.3805 7.36563 23.6788C6.99835 23.8099 6.61865 23.9432 6.22652 24.0785C6.06635 24.1323 5.90135 24.1903 5.73152 24.2525C5.09155 24.4803 4.3853 24.7288 3.71011 24.8572C3.01629 24.9898 2.46952 24.6625 2.14642 24.3767C1.52509 23.8279 1.20821 23.1278 1.01767 22.492C0.881621 22.0019 0.775795 21.5039 0.700787 21.0008C-0.215862 16.0558 -0.233402 10.9861 0.649009 6.03494L0.752564 5.45917C0.876831 4.755 1.03631 3.87477 1.45467 3.0629C1.57971 2.81371 1.72959 2.57779 1.90203 2.35872C2.11025 2.08668 2.37714 1.86509 2.68284 1.71046C3.51129 1.31488 4.43086 0.88823 5.28002 0.654194C5.88685 0.486434 6.71944 0.268967 7.57481 0.132273Z" fill="#FEF6ED"/>
<path d="M7.65332 0.625977C8.46359 0.496333 9.35178 0.432274 10.0889 0.603516L10.1045 0.607422V0.608398L17.3906 2.49219C17.7306 2.58166 18.0913 2.54866 18.4092 2.39844H18.4102L18.6191 2.29883L18.6211 2.29785C19.5474 1.85355 20.5406 1.37831 21.4209 1.13574C22.192 0.922817 23.3118 0.632236 24.3711 0.535156H24.373C24.816 0.493595 25.1764 0.69843 25.4365 0.929688L25.542 1.03027C25.9454 1.43834 26.1988 1.92654 26.3701 2.41895L26.4385 2.63086C26.5814 3.0981 26.6728 3.60342 26.752 4.05762L26.7529 4.06348C27.2532 6.74085 27.4771 9.46191 27.4258 12.1836C26.2029 11.4704 24.8315 11.0402 23.4121 10.9316C21.6875 10.7997 19.9598 11.1469 18.4199 11.9346C16.8802 12.7223 15.5878 13.9199 14.6855 15.3955C13.7833 16.8711 13.306 18.5673 13.3066 20.2969C13.3067 21.3516 13.4732 22.3568 13.7627 23.3057L10.3369 22.418H10.3379C10.1056 22.3531 9.85995 22.3497 9.62598 22.4082L9.61523 22.4111C8.83577 22.6241 8.03265 22.9113 7.19824 23.208H7.19727L6.06348 23.6055C5.90121 23.6601 5.73454 23.7187 5.56348 23.7812C4.91776 24.0111 4.24719 24.2462 3.61621 24.3662C3.19861 24.446 2.84465 24.2885 2.58398 24.0898L2.47754 24.002C1.95378 23.5393 1.67385 22.9384 1.49707 22.3486H1.49609C1.36683 21.8814 1.2668 21.4062 1.19531 20.9268L1.19434 20.918L1.19238 20.9102L1.0332 19.9922C0.288218 15.3981 0.32325 10.7083 1.14062 6.12207L1.24512 5.54785V5.5459C1.3704 4.83595 1.52042 4.02747 1.89941 3.29199L1.90137 3.28711C1.98376 3.12291 2.07849 2.9652 2.18457 2.81543L2.29492 2.66797L2.29883 2.66309C2.45902 2.45379 2.6641 2.28255 2.89844 2.16211C3.62742 1.81402 4.39324 1.45864 5.10938 1.22754L5.41309 1.13574C6.01547 0.969213 6.82638 0.758152 7.65332 0.625977Z" stroke="#242424" stroke-opacity="0.11"/>
<path fill-rule="evenodd" clip-rule="evenodd" d="M22.6981 13.9984C21.8707 13.9979 21.0514 14.1604 20.2869 14.4767C19.5224 14.793 18.8277 15.2569 18.2426 15.8418C17.6575 16.4267 17.1934 17.1212 16.8768 17.8856C16.5603 18.65 16.3975 19.4693 16.3978 20.2967C16.3978 22.7302 17.7875 24.8862 19.1006 26.3567C19.7737 27.1086 20.4634 27.7237 21.0288 28.1586C21.3104 28.3761 21.5755 28.5563 21.8013 28.6888C21.9118 28.7565 22.0264 28.8158 22.1451 28.8669C22.3195 28.9443 22.5074 28.9866 22.6981 28.9912C22.957 28.9912 23.1744 28.9021 23.2511 28.8669C23.3684 28.8158 23.4837 28.7565 23.597 28.6888C23.8227 28.5563 24.0857 28.3761 24.3674 28.1586C24.9349 27.7237 25.6246 27.1086 26.2935 26.3567C27.6108 24.8883 28.9984 22.7323 28.9984 20.2967C28.999 19.4691 28.8364 18.6496 28.5199 17.885C28.2035 17.1204 27.7395 16.4256 27.1543 15.8404C26.5692 15.2553 25.8744 14.7912 25.1098 14.4748C24.3451 14.1584 23.5256 13.9979 22.6981 13.9984Z" fill="#6588E6"/>
<path d="M22.6976 14.4983H22.6985C23.4611 14.4978 24.2152 14.6459 24.9183 14.9368C25.6222 15.2281 26.2624 15.6549 26.8011 16.1936C27.3398 16.7323 27.7666 17.3725 28.0579 18.0764C28.3491 18.7802 28.4988 19.5345 28.4984 20.2961V20.2971C28.4982 22.5492 27.2078 24.5884 25.9212 26.0227L25.9202 26.0247C25.2736 26.7514 24.6067 27.3451 24.0628 27.762L24.0618 27.7629C23.7924 27.971 23.5473 28.1387 23.3441 28.2581L23.3401 28.26C23.2926 28.2884 23.2446 28.3144 23.1966 28.3391L23.0511 28.4084L23.0423 28.4124C22.9935 28.4348 22.8555 28.4892 22.7034 28.4905C22.5809 28.4866 22.4601 28.4601 22.348 28.4104V28.4094L22.3431 28.4075L22.2005 28.3401C22.1537 28.3159 22.108 28.2896 22.0628 28.262L22.054 28.2581L21.7181 28.0432C21.5972 27.9604 21.4684 27.8665 21.3343 27.7629L21.3333 27.762C20.791 27.3448 20.1242 26.751 19.473 26.0237H19.4739C18.1905 24.5864 16.8979 22.547 16.8978 20.2971V20.2961C16.8976 19.5347 17.0479 18.7809 17.3392 18.0774C17.6306 17.3738 18.0574 16.734 18.596 16.1956C19.1346 15.6571 19.7741 15.2299 20.4778 14.9387C21.1816 14.6476 21.936 14.4978 22.6976 14.4983Z" stroke="#242424" stroke-opacity="0.11"/>
<path fill-rule="evenodd" clip-rule="evenodd" d="M22.6981 18.7951C23.4126 18.7951 23.9925 19.375 23.9925 20.0896V20.4023C23.9925 20.7456 23.8561 21.0748 23.6134 21.3176C23.3706 21.5604 23.0414 21.6967 22.6981 21.6967C22.3548 21.6967 22.0255 21.5604 21.7828 21.3176C21.54 21.0748 21.4036 20.7456 21.4036 20.4023V20.0896C21.4036 19.375 21.9835 18.7951 22.6981 18.7951Z" fill="#FEF6ED"/>
<path d="M22.6985 19.2951C23.1367 19.2954 23.4925 19.6518 23.4925 20.09V20.4025C23.4924 20.6131 23.4089 20.8151 23.2601 20.9641C23.1112 21.1129 22.9091 21.1963 22.6985 21.1965C22.4878 21.1965 22.285 21.113 22.136 20.9641C21.9872 20.8151 21.9037 20.6131 21.9036 20.4025V20.09L21.9075 20.008C21.9484 19.6078 22.2877 19.2951 22.6985 19.2951Z" stroke="#242424" stroke-opacity="0.11"/>
<path fill-rule="evenodd" clip-rule="evenodd" d="M18.4046 1.84714L18.6324 1.73944V12.3912C17.1786 13.1379 15.9589 14.2711 15.1075 15.6663C14.2561 17.0614 13.806 18.6643 13.8068 20.2987C13.8068 21.6201 14.0864 22.8689 14.5461 24.0246L10.203 22.9C10.0541 22.8591 9.89704 22.8577 9.74737 22.8959L9.31244 23.0201V0.00592041C9.61896 0.0169663 9.91651 0.0549367 10.2051 0.119832L10.2279 0.126045L17.5161 2.01076C17.7422 2.07031 17.9819 2.04831 18.1934 1.94862L18.4046 1.84714Z" fill="#6588E6"/>
<path d="M9.81244 0.554749C9.90306 0.568701 9.99262 0.585008 10.081 0.604553L10.0966 0.608459L10.1025 0.610413L17.3906 2.4942C17.6353 2.55839 17.8903 2.55798 18.1328 2.49713V12.0909C16.7165 12.8779 15.5265 14.0194 14.6806 15.4053C13.7813 16.879 13.3058 18.5725 13.3066 20.2989L13.3203 20.8174C13.3656 21.682 13.5225 22.5132 13.7636 23.3047L10.3281 22.4161H10.3271C10.1589 22.371 9.98441 22.3577 9.81244 22.377V0.554749Z" stroke="#242424" stroke-opacity="0.11"/>
</svg>
