<svg width="20" height="14" viewBox="0 0 20 14" fill="none" xmlns="http://www.w3.org/2000/svg">
<path d="M0.833008 13.6664V11.333C0.833008 10.8608 0.954674 10.4269 1.19801 10.0314C1.44134 9.63581 1.76412 9.33358 2.16634 9.1247C3.02745 8.69414 3.90245 8.37136 4.79134 8.15636C5.68023 7.94136 6.58301 7.83358 7.49967 7.83303C8.41634 7.83247 9.31912 7.94025 10.208 8.15636C11.0969 8.37247 11.9719 8.69525 12.833 9.1247C13.2358 9.33303 13.5588 9.63525 13.8022 10.0314C14.0455 10.4275 14.1669 10.8614 14.1663 11.333V13.6664H0.833008ZM15.833 13.6664V11.1664C15.833 10.5553 15.663 9.96831 15.323 9.40553C14.983 8.84275 14.5002 8.36025 13.8747 7.95803C14.583 8.04136 15.2497 8.18386 15.8747 8.38553C16.4997 8.5872 17.083 8.83358 17.6247 9.1247C18.1247 9.40247 18.5066 9.71136 18.7705 10.0514C19.0344 10.3914 19.1663 10.763 19.1663 11.1664V13.6664H15.833ZM7.49967 6.9997C6.58301 6.9997 5.79829 6.67331 5.14551 6.02053C4.49273 5.36775 4.16634 4.58303 4.16634 3.66636C4.16634 2.7497 4.49273 1.96497 5.14551 1.3122C5.79829 0.659418 6.58301 0.333029 7.49967 0.333029C8.41634 0.333029 9.20106 0.659418 9.85384 1.3122C10.5066 1.96497 10.833 2.7497 10.833 3.66636C10.833 4.58303 10.5066 5.36775 9.85384 6.02053C9.20106 6.67331 8.41634 6.9997 7.49967 6.9997ZM15.833 3.66636C15.833 4.58303 15.5066 5.36775 14.8538 6.02053C14.2011 6.67331 13.4163 6.9997 12.4997 6.9997C12.3469 6.9997 12.1525 6.98247 11.9163 6.94803C11.6802 6.91358 11.4858 6.87525 11.333 6.83303C11.708 6.38858 11.9963 5.89553 12.198 5.35386C12.3997 4.8122 12.5002 4.2497 12.4997 3.66636C12.4991 3.08303 12.3986 2.52053 12.198 1.97886C11.9975 1.4372 11.7091 0.94414 11.333 0.499696C11.5275 0.430251 11.7219 0.384974 11.9163 0.363863C12.1108 0.342752 12.3052 0.332474 12.4997 0.333029C13.4163 0.333029 14.2011 0.659418 14.8538 1.3122C15.5066 1.96497 15.833 2.7497 15.833 3.66636Z" fill="#6588E6"/>
<path d="M15.7207 8.86133C16.3187 9.05428 16.8745 9.28868 17.3877 9.56445C17.8441 9.81874 18.1655 10.0873 18.376 10.3584C18.5763 10.6167 18.6659 10.8817 18.666 11.166V13.166H16.333V11.166C16.3329 10.4571 16.1342 9.78189 15.751 9.14746C15.6789 9.0281 15.5996 8.91306 15.5166 8.80078C15.585 8.82106 15.6535 8.83964 15.7207 8.86133ZM7.5 8.33301C8.37684 8.33248 9.23981 8.43591 10.0898 8.64258C10.9403 8.84935 11.7802 9.15786 12.6094 9.57129C12.9265 9.73658 13.1802 9.97435 13.376 10.293C13.57 10.6089 13.6664 10.9517 13.666 11.332V13.166H1.33301V11.333L1.33789 11.1914C1.35914 10.8661 1.45434 10.5688 1.62402 10.293C1.81961 9.97516 2.07335 9.7381 2.38965 9.57227C3.21876 9.15771 4.05887 8.84825 4.90918 8.64258C5.75951 8.43692 6.62281 8.33354 7.5 8.33301ZM7.5 0.833008C8.28286 0.833083 8.94032 1.10634 9.5 1.66602C10.0597 2.22569 10.3329 2.88316 10.333 3.66602C10.333 4.44902 10.0598 5.10723 9.5 5.66699C8.94035 6.22657 8.28279 6.49992 7.5 6.5C6.717 6.5 6.05878 6.22675 5.49902 5.66699C4.93927 5.10724 4.66602 4.44901 4.66602 3.66602C4.6661 2.88324 4.93945 2.22566 5.49902 1.66602C6.05878 1.10626 6.717 0.833008 7.5 0.833008ZM12.498 0.833008H12.5C13.2829 0.833083 13.9403 1.10634 14.5 1.66602C15.0597 2.22569 15.3329 2.88316 15.333 3.66602C15.333 4.44902 15.0598 5.10723 14.5 5.66699C13.9404 6.22657 13.2828 6.49992 12.5 6.5C12.4222 6.5 12.3235 6.49167 12.2021 6.47852C12.3863 6.17826 12.5427 5.86211 12.667 5.52832C12.8896 4.93024 13.0006 4.30841 13 3.66602C12.9994 3.02432 12.8882 2.40319 12.667 1.80566C12.5417 1.46735 12.3837 1.14659 12.1963 0.842773C12.2969 0.836642 12.3975 0.832725 12.498 0.833008Z" stroke="#242424" stroke-opacity="0.2"/>
</svg>
