<svg width="17" height="17" viewBox="0 0 17 17" fill="none" xmlns="http://www.w3.org/2000/svg">
<path d="M6.53898 12.23C4.94032 12.23 3.58532 11.6747 2.47398 10.564C1.36332 9.45402 0.807983 8.09935 0.807983 6.50002C0.807983 4.90069 1.36332 3.54569 2.47398 2.43502C3.58465 1.32435 4.93965 0.769353 6.53898 0.77002C8.13832 0.770687 9.49298 1.32602 10.603 2.43602C11.713 3.54602 12.2683 4.90069 12.269 6.50002C12.269 7.19469 12.146 7.86702 11.9 8.51702C11.654 9.16702 11.3306 9.72302 10.93 10.185L16.839 16.092C16.9323 16.1854 16.9823 16.3004 16.989 16.437C16.995 16.5724 16.945 16.6934 16.839 16.8C16.7323 16.9067 16.6143 16.96 16.485 16.96C16.3556 16.96 16.2376 16.9067 16.131 16.8L10.223 10.892C9.72298 11.318 9.14798 11.6477 8.49798 11.881C7.84798 12.1144 7.19465 12.231 6.53798 12.231M6.53798 11.231C7.86465 11.231 8.98498 10.7744 9.89898 9.86102C10.8123 8.94769 11.269 7.82735 11.269 6.50002C11.269 5.17269 10.8126 4.05269 9.89998 3.14002C8.98732 2.22735 7.86732 1.77069 6.53998 1.77002C5.21265 1.77002 4.09232 2.22669 3.17898 3.14002C2.26565 4.05335 1.80865 5.17335 1.80798 6.50002C1.80732 7.82669 2.26398 8.94669 3.17798 9.86002C4.09198 10.7734 5.21198 11.23 6.53798 11.23" fill="#242424"/>
</svg>
