<svg width="20" height="30" viewBox="0 0 20 30" fill="none" xmlns="http://www.w3.org/2000/svg">
<g filter="url(#filter0_d_1_44)">
<path fill-rule="evenodd" clip-rule="evenodd" d="M7.7139 14.863C10.2139 12 12.2139 9 15.9129 4.73198C16.0853 4.55073 16.1815 4.31014 16.1815 4.05998C16.1815 3.80982 16.0853 3.56923 15.9129 3.38798C15.4464 2.86898 14.7084 2.91398 14.3724 3.26798C10.9584 6.69098 7.3869 10.2685 3.6579 14.0005C3.3619 14.2435 3.2139 14.5305 3.2139 14.8615C3.2139 15.1925 3.3619 15.4885 3.6579 15.7495L14.8824 26.7085C15.0979 26.9062 15.3819 27.0122 15.6742 27.0041C15.9665 26.996 16.2442 26.8744 16.4484 26.665C16.9854 26.1265 16.7784 25.5955 16.5354 25.3435C13.2139 21.5 10.7139 18.5 7.7139 14.863Z" fill="#242424"/>
</g>
<defs>
<filter id="filter0_d_1_44" x="0.213903" y="0" width="19.5722" height="30.0045" filterUnits="userSpaceOnUse" color-interpolation-filters="sRGB">
<feFlood flood-opacity="0" result="BackgroundImageFix"/>
<feColorMatrix in="SourceAlpha" type="matrix" values="0 0 0 0 0 0 0 0 0 0 0 0 0 0 0 0 0 0 127 0" result="hardAlpha"/>
<feOffset/>
<feGaussianBlur stdDeviation="1.5"/>
<feComposite in2="hardAlpha" operator="out"/>
<feColorMatrix type="matrix" values="0 0 0 0 1 0 0 0 0 1 0 0 0 0 1 0 0 0 0.5 0"/>
<feBlend mode="normal" in2="BackgroundImageFix" result="effect1_dropShadow_1_44"/>
<feBlend mode="normal" in="SourceGraphic" in2="effect1_dropShadow_1_44" result="shape"/>
</filter>
</defs>
</svg>
