<svg width="126" height="126" viewBox="0 0 126 126" fill="none" xmlns="http://www.w3.org/2000/svg">
<path d="M65.0939 79.75H52.5314C51.3798 79.75 50.4376 78.8078 50.4376 77.6562V75.5625H73.4689C74.432 75.5625 75.2486 74.8925 75.4789 73.9713C75.7092 73.0291 75.2695 72.0659 74.4111 71.6053C74.1179 71.4588 67.732 67.8366 67.2295 54.2272C69.6373 53.3478 71.3751 51.0447 71.3751 48.3438C71.3751 45.6428 69.6164 43.3188 67.1876 42.4394V37.875H71.3751C73.6782 37.875 75.5626 35.9906 75.5626 33.6875V29.5C75.5626 27.1969 73.6782 25.3125 71.3751 25.3125H66.8736L64.1517 8.93937C63.3142 3.8725 58.9592 0.1875 53.8295 0.1875H26.1501C21.0204 0.1875 16.6654 3.8725 15.8279 8.93937L13.1061 25.3125H8.60449C6.30137 25.3125 4.41699 27.1969 4.41699 29.5V33.6875C4.41699 35.9906 6.30137 37.875 8.60449 37.875H12.792V42.4394C10.3632 43.2978 8.60449 45.6009 8.60449 48.3438C8.60449 51.0866 10.3423 53.3478 12.7501 54.2272C12.2476 67.8575 5.84074 71.4588 5.58949 71.6053C4.71012 72.045 4.27043 73.0081 4.47981 73.9503C4.71012 74.8925 5.54762 75.5625 6.51074 75.5625H29.542V77.6562C29.542 78.8078 28.5998 79.75 27.4482 79.75H14.8857C6.80387 79.75 0.229492 86.3244 0.229492 94.4062V123.719C0.229492 124.87 1.17168 125.812 2.32324 125.812H77.6982C78.8498 125.812 79.792 124.87 79.792 123.719V94.4062C79.792 86.3244 73.2176 79.75 65.1357 79.75H65.0939ZM23.2189 54.625V37.875H56.7189V54.625C56.7189 63.8584 49.2023 71.375 39.9689 71.375C30.7354 71.375 23.2189 63.8584 23.2189 54.625ZM67.1876 48.3438C67.1876 49.4953 66.2454 50.4375 65.0939 50.4375H60.9064V46.25H65.0939C66.2454 46.25 67.1876 47.1922 67.1876 48.3438ZM52.4686 71.375C57.5773 67.5434 60.9064 61.4716 60.9064 54.625H63.0629C63.4189 63.0209 65.8686 68.2762 68.1926 71.375H52.4686ZM63.0001 42.0625H60.9064V37.875H63.0001V42.0625ZM19.9317 9.63031C20.4342 6.59438 23.0514 4.375 26.1292 4.375H53.8086C56.8864 4.375 59.5036 6.57344 60.0061 9.63031L62.6232 25.3125H17.3145L19.9317 9.63031ZM8.56262 29.5H71.3751V33.6875H65.0939H8.56262V29.5ZM19.0314 37.875V42.0625H16.9376V37.875H19.0314ZM14.8439 46.25H19.0314V50.4375H14.8439C13.6923 50.4375 12.7501 49.4953 12.7501 48.3438C12.7501 47.1922 13.6923 46.25 14.8439 46.25ZM16.8748 54.625H19.0314C19.0314 61.4716 22.3604 67.5434 27.4692 71.375H11.7451C14.0692 68.2762 16.5189 63.0209 16.8748 54.625ZM27.4064 83.9375C30.8611 83.9375 33.6876 81.1109 33.6876 77.6562V74.5994C35.6767 75.2275 37.7914 75.5625 39.9689 75.5625C42.1464 75.5625 44.2611 75.2275 46.2501 74.5994V77.6562C46.2501 81.1109 49.0767 83.9375 52.5314 83.9375H56.5095C55.5464 88.7112 51.317 92.3125 46.2501 92.3125H33.6876C28.6207 92.3125 24.4123 88.7112 23.4282 83.9375H27.4064ZM75.5626 121.625H67.1876V106.969C67.1876 105.817 66.2454 104.875 65.0939 104.875C63.9423 104.875 63.0001 105.817 63.0001 106.969V121.625H16.9376V106.969C16.9376 105.817 15.9954 104.875 14.8439 104.875C13.6923 104.875 12.7501 105.817 12.7501 106.969V121.625H4.37512V94.4062C4.37512 88.6275 9.06512 83.9375 14.8439 83.9375H19.1989C20.2248 91.0353 26.3176 96.5 33.6876 96.5H46.2501C53.6201 96.5 59.7129 91.0353 60.7389 83.9375H65.0939C70.8726 83.9375 75.5626 88.6275 75.5626 94.4062V121.625ZM116.83 48.9509C116.6 48.7206 116.579 48.4694 116.579 48.3438C116.579 48.2181 116.621 47.9459 116.83 47.7366L124.347 40.22C125.289 39.2778 125.834 37.9797 125.834 36.6397C125.834 33.855 123.572 31.5938 120.788 31.5938H96.5211C96.5211 29.2906 94.6367 27.4062 92.3336 27.4062H88.1461C85.8429 27.4062 83.9586 29.2906 83.9586 31.5938V123.719C83.9586 124.87 84.9007 125.812 86.0523 125.812C87.2039 125.812 88.1461 124.87 88.1461 123.719V31.5938H92.3336V123.719C92.3336 124.87 93.2757 125.812 94.4273 125.812C95.5789 125.812 96.5211 124.87 96.5211 123.719V65.0938H120.788C123.572 65.0938 125.834 62.8325 125.834 60.0478C125.834 58.7288 125.289 57.4097 124.347 56.4675L116.83 48.9509ZM120.767 60.9062H96.5001V35.7812H120.767C121.248 35.7812 121.625 36.1791 121.625 36.6397C121.625 36.87 121.541 37.1003 121.374 37.2469L113.857 44.7634C112.894 45.7266 112.371 46.9828 112.371 48.3438C112.371 49.7047 112.894 50.9609 113.857 51.9241L121.353 59.4406C121.52 59.6081 121.604 59.8175 121.604 60.0478C121.604 60.5294 121.206 60.9062 120.746 60.9062H120.767Z" fill="#242424"/>
</svg>
