<svg width="22" height="20" viewBox="0 0 22 20" fill="none" xmlns="http://www.w3.org/2000/svg">
<path fill-rule="evenodd" clip-rule="evenodd" d="M6.78362 0.572814C7.03202 0.494484 7.30135 0.518025 7.53239 0.63826C7.76343 0.758494 7.93725 0.965575 8.01562 1.21396L8.77776 3.62296C9.46919 3.45953 10.2109 3.36839 11.0029 3.36839C11.7949 3.36839 12.5351 3.45953 13.2265 3.62139L13.9823 1.21553C14.021 1.09243 14.0836 0.978164 14.1664 0.879245C14.2493 0.780327 14.3508 0.698697 14.4652 0.639015C14.5796 0.579334 14.7047 0.54277 14.8332 0.531411C14.9617 0.520052 15.0912 0.534121 15.2143 0.572814C15.3374 0.611507 15.4517 0.674066 15.5506 0.756921C15.6495 0.839775 15.7312 0.941302 15.7908 1.0557C15.8505 1.17011 15.8871 1.29514 15.8985 1.42367C15.9098 1.55221 15.8957 1.68172 15.857 1.80481L15.0823 4.26724C16.2801 4.83887 17.3646 5.62254 18.2833 6.58038L20.323 4.53753C20.5071 4.35311 20.7568 4.24934 21.0173 4.24904C21.2778 4.24875 21.5278 4.35195 21.7122 4.53596C21.8966 4.71996 22.0004 4.96969 22.0007 5.2302C22.001 5.49072 21.8978 5.74068 21.7138 5.9251L19.553 8.08896C20.0103 8.71753 20.3671 9.31153 20.6311 9.79867C20.8356 10.1807 21.0202 10.573 21.1842 10.9741C21.2071 11.0363 21.2281 11.0992 21.247 11.1627L21.2628 11.2318C21.288 11.3557 21.288 11.4835 21.2628 11.6074C21.252 11.6567 21.2389 11.7055 21.2235 11.7535L21.1842 11.8667C21.1538 11.9431 21.1145 12.038 21.0663 12.1511C20.933 12.4532 20.7878 12.7499 20.6311 13.0405C20.1314 13.968 19.534 14.8393 18.8491 15.6397C17.2352 17.5207 14.6628 19.4724 11.0029 19.4724C7.34305 19.4724 4.77062 17.5207 3.15519 15.6397C2.47076 14.8392 1.87389 13.9679 1.37476 13.0405C1.1703 12.659 0.985671 12.2672 0.821622 11.8667C0.798686 11.8045 0.777723 11.7416 0.758765 11.6781L0.74305 11.6074C0.739907 11.587 0.725765 11.5131 0.725765 11.4188C0.725765 11.3245 0.739907 11.2522 0.74305 11.2334C0.753791 11.1841 0.766901 11.1353 0.782336 11.0872C0.79386 11.0485 0.806955 11.0108 0.821622 10.9741C0.849907 10.8966 0.888669 10.8018 0.937907 10.6897C1.03691 10.4634 1.18148 10.157 1.37476 9.79867C1.64191 9.30053 2.00962 8.69239 2.48105 8.05124L0.298336 5.9361C0.205679 5.84633 0.13161 5.73919 0.0803592 5.6208C0.0291081 5.50241 0.00167794 5.37508 -0.000364947 5.24608C-0.00449075 4.98557 0.0950415 4.73409 0.276336 4.54696C0.45763 4.35983 0.705836 4.25238 0.966351 4.24826C1.22687 4.24413 1.47835 4.34366 1.66548 4.52496L3.75391 6.54896C4.66554 5.60613 5.73843 4.83393 6.92191 4.26881L6.14248 1.80639C6.10322 1.6832 6.08867 1.55347 6.09966 1.42464C6.11066 1.29581 6.14698 1.17042 6.20655 1.05567C6.26611 0.940911 6.34775 0.839046 6.44678 0.755917C6.54581 0.672787 6.66028 0.610029 6.78362 0.571242M3.10491 12.1102C2.98267 11.8838 2.86841 11.6532 2.76234 11.4188C3.2537 10.3585 3.88703 9.36986 4.64491 8.48024C6.04191 6.85538 8.11619 5.33267 11.0029 5.33267C13.8896 5.33267 15.9639 6.85696 17.3593 8.48024C18.1172 9.36986 18.7505 10.3585 19.2419 11.4188C19.1633 11.5932 19.0518 11.8305 18.9009 12.1102C18.4686 12.9127 17.9524 13.667 17.3609 14.3605C15.9639 15.9854 13.888 17.5081 11.0029 17.5081C8.11776 17.5081 6.04191 15.9838 4.64491 14.3605C4.05343 13.667 3.53721 12.9127 3.10491 12.1102ZM7.44205 11.3717C7.45776 9.41681 9.07005 7.85167 11.0249 7.85167C12.9798 7.85167 14.5701 9.41681 14.5575 11.3717C14.5433 13.3234 12.9295 14.8885 10.9746 14.8885C9.01976 14.8885 7.42948 13.3234 7.44362 11.3701" fill="#666666"/>
</svg>
