<svg width="98" height="126" viewBox="0 0 98 126" fill="none" xmlns="http://www.w3.org/2000/svg">
<path d="M16.5 55.3077C16.5069 57.2434 15.9712 59.1424 14.9537 60.7893C13.9363 62.4361 12.4777 63.7649 10.7435 64.625C7.67055 66.1616 5.07228 68.5034 3.22572 71.4006C1.37916 74.2979 0.353563 77.642 0.25828 81.0764C0.162997 84.5107 1.00161 87.9065 2.68468 90.9017C4.36776 93.8969 6.83219 96.3792 9.81519 98.0837L10.7922 98.6423C9.2092 101.394 8.37574 104.513 8.37503 107.688V123.938C8.37503 124.476 8.58904 124.993 8.96997 125.374C9.35091 125.755 9.86756 125.969 10.4063 125.969H87.5938C88.1325 125.969 88.6492 125.755 89.0301 125.374C89.411 124.993 89.625 124.476 89.625 123.938V107.688C89.6247 104.512 88.7912 101.393 87.2078 98.6403L88.1849 98.0817C91.1674 96.377 93.6313 93.8948 95.314 90.8998C96.9967 87.9048 97.8352 84.5094 97.7399 81.0754C97.6446 77.6414 96.6192 74.2976 94.773 71.4005C92.9268 68.5035 90.329 66.1618 87.2566 64.625C85.5224 63.7649 84.0638 62.4361 83.0463 60.7893C82.0289 59.1424 81.4932 57.2434 81.5 55.3077V34.5625H84.5469C86.4324 34.5625 88.2407 33.8135 89.574 32.4802C90.9073 31.1469 91.6563 29.3386 91.6563 27.4531C91.6563 25.5676 90.9073 23.7593 89.574 22.426C88.2407 21.0928 86.4324 20.3438 84.5469 20.3438H79.4688V18.3125C79.4634 13.4657 77.5356 8.81888 74.1084 5.39164C70.6812 1.96441 66.0344 0.0366264 61.1875 0.03125H36.8125C31.9657 0.0366264 27.3189 1.96441 23.8917 5.39164C20.4644 8.81888 18.5367 13.4657 18.5313 18.3125V20.3438H13.4532C11.5676 20.3438 9.75934 21.0928 8.42607 22.426C7.0928 23.7593 6.34378 25.5676 6.34378 27.4531C6.34378 29.3386 7.0928 31.1469 8.42607 32.4802C9.75934 33.8135 11.5676 34.5625 13.4532 34.5625H16.5V55.3077ZM11.8282 94.5555C9.48349 93.2156 7.54645 91.2645 6.22361 88.9101C4.90078 86.5558 4.24175 83.8866 4.31681 81.1872C4.39187 78.4877 5.1982 75.8592 6.64982 73.582C8.10144 71.3049 10.1439 69.4644 12.5594 68.2569C14.5456 67.2692 16.2762 65.835 17.6153 64.0666C18.9545 62.2982 19.8659 60.2437 20.2782 58.0641C21.2984 58.6283 22.4435 58.9286 23.6094 58.9375H24.625C24.6304 63.6011 25.9727 68.1655 28.4928 72.0896C31.0128 76.0137 34.6051 79.1331 38.8438 81.0781V87.375C38.8438 87.9137 38.6298 88.4304 38.2488 88.8113C37.8679 89.1922 37.3513 89.4062 36.8125 89.4062H26.6563C24.1257 89.4075 21.6232 89.9362 19.3083 90.9584C16.9934 91.9807 14.917 93.4742 13.2114 95.3436L11.8282 94.5555ZM42.7235 34.5625C42.2415 37.3992 40.7724 39.9743 38.5757 41.8328C36.379 43.6912 33.5962 44.7134 30.7188 44.7188H28.6875V34.5625H42.7235ZM74.3907 54.875H73.375V48.7812H74.3907C75.1987 48.7812 75.9737 49.1023 76.5451 49.6737C77.1165 50.2451 77.4375 51.02 77.4375 51.8281C77.4375 52.6362 77.1165 53.4112 76.5451 53.9826C75.9737 54.554 75.1987 54.875 74.3907 54.875ZM69.3125 44.7188H67.2813C64.4039 44.7134 61.621 43.6912 59.4243 41.8328C57.2277 39.9743 55.7585 37.3992 55.2766 34.5625H69.3125V44.7188ZM51.1714 34.5625C51.6692 38.4859 53.5793 42.0935 56.5444 44.7105C59.5095 47.3275 63.3265 48.7747 67.2813 48.7812H69.3125V58.9375C69.3125 64.3247 67.1725 69.4913 63.3631 73.3006C59.5538 77.1099 54.3872 79.25 49 79.25C43.6128 79.25 38.4463 77.1099 34.6369 73.3006C30.8276 69.4913 28.6875 64.3247 28.6875 58.9375V48.7812H30.7188C34.6736 48.7747 38.4905 47.3275 41.4556 44.7105C44.4207 42.0935 46.3308 38.4859 46.8286 34.5625H51.1714ZM61.1875 93.4688V105.983C56.9669 106.511 52.8547 107.695 49 109.493C45.1453 107.695 41.0332 106.511 36.8125 105.983V93.4688C38.4287 93.4688 39.9787 92.8267 41.1215 91.6839C42.2643 90.5411 42.9063 88.9912 42.9063 87.375V82.5C46.8984 83.5698 51.1017 83.5698 55.0938 82.5V87.375C55.0938 88.9912 55.7358 90.5411 56.8786 91.6839C58.0214 92.8267 59.5714 93.4688 61.1875 93.4688ZM28.6875 93.4688H32.75V105.683C32.4311 105.683 32.1122 105.656 31.7913 105.656C30.7408 105.658 29.6958 105.808 28.6875 106.103V93.4688ZM31.7913 109.719C37.4501 109.729 43.0296 111.05 48.0921 113.578C48.374 113.719 48.6849 113.792 49 113.792C49.3152 113.792 49.6261 113.719 49.908 113.578C54.9705 111.05 60.55 109.729 66.2088 109.719C68.1087 109.721 69.9302 110.477 71.2737 111.82C72.6172 113.164 73.3729 114.985 73.375 116.885V121.906H24.625V116.885C24.6272 114.985 25.3829 113.164 26.7264 111.82C28.0698 110.477 29.8913 109.721 31.7913 109.719ZM69.3125 106.103C68.3043 105.808 67.2593 105.658 66.2088 105.656C65.8878 105.656 65.5689 105.675 65.25 105.683V93.4688H69.3125V106.103ZM24.625 54.875H23.6094C22.8013 54.875 22.0263 54.554 21.4549 53.9826C20.8835 53.4112 20.5625 52.6362 20.5625 51.8281C20.5625 51.02 20.8835 50.2451 21.4549 49.6737C22.0263 49.1023 22.8013 48.7812 23.6094 48.7812H24.625V54.875ZM12.4375 107.688C12.4441 104.272 13.6788 100.973 15.9163 98.3921C18.1538 95.8115 21.2449 94.1217 24.625 93.6313V108.256C23.3541 109.308 22.331 110.627 21.6287 112.12C20.9265 113.612 20.5624 115.242 20.5625 116.891V121.906H12.4375V107.688ZM85.5625 121.906H77.4375V116.885C77.4376 115.235 77.0736 113.606 76.3713 112.114C75.6691 110.621 74.646 109.302 73.375 108.25V93.6252C76.7562 94.1157 79.8481 95.8064 82.0857 98.3883C84.3234 100.97 85.5575 104.271 85.5625 107.688V121.906ZM85.4386 68.2569C87.8541 69.4644 89.8966 71.3049 91.3482 73.582C92.7998 75.8592 93.6062 78.4877 93.6812 81.1872C93.7563 83.8866 93.0973 86.5558 91.7744 88.9101C90.4516 91.2645 88.5145 93.2156 86.1699 94.5555L84.7886 95.3436C83.0831 93.4742 81.0066 91.9807 78.6917 90.9584C76.3769 89.9362 73.8743 89.4075 71.3438 89.4062H61.1875C60.6488 89.4062 60.1322 89.1922 59.7512 88.8113C59.3703 88.4304 59.1563 87.9137 59.1563 87.375V81.0781C63.395 79.1331 66.9872 76.0137 69.5073 72.0896C72.0274 68.1655 73.3697 63.6011 73.375 58.9375H74.3907C75.5593 58.9299 76.7074 58.6296 77.73 58.0641C78.1412 60.2427 79.0511 62.2966 80.3884 64.0649C81.7258 65.8332 83.4543 67.268 85.4386 68.2569ZM77.4375 45.4317C76.4883 44.9684 75.4469 44.7247 74.3907 44.7188H73.375V34.5625H77.4375V45.4317ZM22.5938 18.3125C22.5981 14.5428 24.0975 10.9287 26.7631 8.26308C29.4287 5.59748 33.0428 4.09805 36.8125 4.09375H61.1875C64.9573 4.09805 68.5714 5.59748 71.237 8.26308C73.9026 10.9287 75.402 14.5428 75.4063 18.3125V20.3438H22.5938V18.3125ZM10.4063 27.4531C10.4063 26.645 10.7273 25.8701 11.2987 25.2987C11.8701 24.7273 12.6451 24.4063 13.4532 24.4062H84.5469C85.355 24.4063 86.13 24.7273 86.7014 25.2987C87.2728 25.8701 87.5938 26.645 87.5938 27.4531C87.5938 28.2612 87.2728 29.0362 86.7014 29.6076C86.13 30.179 85.355 30.5 84.5469 30.5H13.4532C12.6451 30.5 11.8701 30.179 11.2987 29.6076C10.7273 29.0362 10.4063 28.2612 10.4063 27.4531ZM24.625 34.5625V44.7188H23.6094C22.5531 44.7247 21.5118 44.9684 20.5625 45.4317V34.5625H24.625Z" fill="#242424"/>
</svg>
